<?xml version="1.0" standalone="no"?>
<!DOCTYPE svg PUBLIC "-//W3C//DTD SVG 20010904//EN"
 "http://www.w3.org/TR/2001/REC-SVG-20010904/DTD/svg10.dtd">
<svg version="1.0" xmlns="http://www.w3.org/2000/svg"
 width="260.000000pt" height="260.000000pt" viewBox="0 0 260.000000 260.000000"
 preserveAspectRatio="xMidYMid meet">
<metadata>
Created by potrace 1.14, written by Peter Selinger 2001-2017
</metadata>
<g transform="translate(0.000000,260.000000) scale(0.100000,-0.100000)"
fill="#000000" stroke="none">
<path d="M0 1300 l0 -1300 1300 0 1300 0 0 1300 0 1300 -1300 0 -1300 0 0
-1300z m2192 702 c21 -13 45 -40 57 -66 21 -41 21 -56 21 -636 0 -580 0 -595
-21 -636 -12 -26 -36 -53 -57 -66 l-37 -23 -855 0 -855 0 -37 23 c-21 13 -45
40 -57 66 -21 41 -21 56 -21 636 0 578 1 595 20 636 21 43 53 70 99 85 14 4
404 7 866 6 l840 -2 37 -23z"/>
<path d="M471 1937 c-49 -25 -63 -58 -67 -158 -4 -79 -3 -91 8 -74 7 10 25 32
40 47 l26 28 822 0 822 0 26 -28 c15 -15 33 -37 40 -47 11 -17 12 -5 8 74 -4
100 -18 133 -67 158 -18 10 -210 13 -829 13 -619 0 -811 -3 -829 -13z"/>
<path d="M478 1658 c-63 -17 -66 -26 -69 -198 l-4 -155 270 -5 c265 -5 271 -5
314 -30 25 -14 70 -56 100 -93 66 -80 98 -103 167 -118 42 -10 60 -9 110 6 60
17 96 47 172 143 18 23 52 52 75 65 40 21 55 22 313 25 l271 3 -5 162 c-6 182
-4 179 -85 196 -63 14 -1577 13 -1629 -1z"/>
</g>
</svg>
